<?xml version="1.0" encoding="UTF-8" standalone="no"?>
<!-- Created with Inkscape (http://www.inkscape.org/) -->

<svg
   width="210mm"
   height="297mm"
   viewBox="0 0 210 297"
   version="1.1"
   id="svg5"
   xml:space="preserve"
   inkscape:version="1.2.2 (732a01da63, 2022-12-09)"
   sodipodi:docname="favicon-32x32.svg"
   xmlns:inkscape="http://www.inkscape.org/namespaces/inkscape"
   xmlns:sodipodi="http://sodipodi.sourceforge.net/DTD/sodipodi-0.dtd"
   xmlns:xlink="http://www.w3.org/1999/xlink"
   xmlns="http://www.w3.org/2000/svg"
   xmlns:svg="http://www.w3.org/2000/svg"><sodipodi:namedview
     id="namedview7"
     pagecolor="#ffffff"
     bordercolor="#000000"
     borderopacity="0.25"
     inkscape:showpageshadow="2"
     inkscape:pageopacity="0.0"
     inkscape:pagecheckerboard="0"
     inkscape:deskcolor="#d1d1d1"
     inkscape:document-units="mm"
     showgrid="false"
     inkscape:zoom="24.630303"
     inkscape:cx="252.87955"
     inkscape:cy="160.35126"
     inkscape:window-width="1920"
     inkscape:window-height="1051"
     inkscape:window-x="-9"
     inkscape:window-y="-9"
     inkscape:window-maximized="1"
     inkscape:current-layer="layer1" /><defs
     id="defs2"><linearGradient
       id="linearGradient8327"
       inkscape:swatch="solid"><stop
         style="stop-color:#800000;stop-opacity:1;"
         offset="0"
         id="stop8325" /></linearGradient><linearGradient
       id="linearGradient8259"
       inkscape:swatch="solid"><stop
         style="stop-color:#800000;stop-opacity:1;"
         offset="0"
         id="stop8257" /></linearGradient><marker
       style="overflow:visible"
       id="marker7981"
       refX="0"
       refY="0"
       orient="auto-start-reverse"
       inkscape:stockid="TriangleStart"
       markerWidth="2.25"
       markerHeight="3"
       viewBox="0 0 5.3244081 6.1553851"
       inkscape:isstock="true"
       inkscape:collect="always"
       preserveAspectRatio="xMidYMid"><path
         transform="scale(0.5)"
         style="fill:context-stroke;fill-rule:evenodd;stroke:context-stroke;stroke-width:1pt"
         d="M 5.77,0 -2.88,5 V -5 Z"
         id="path7979" /></marker><marker
       style="overflow:visible"
       id="TriangleStart"
       refX="0"
       refY="0"
       orient="auto-start-reverse"
       inkscape:stockid="TriangleStart"
       markerWidth="3"
       markerHeight="3"
       viewBox="0 0 5.3244081 6.1553851"
       inkscape:isstock="true"
       inkscape:collect="always"
       preserveAspectRatio="xMidYMid"><path
         transform="scale(0.5)"
         style="fill:context-stroke;fill-rule:evenodd;stroke:context-stroke;stroke-width:1pt"
         d="M 5.77,0 -2.88,5 V -5 Z"
         id="path135" /></marker><linearGradient
       inkscape:collect="always"
       xlink:href="#linearGradient8259"
       id="linearGradient8261"
       x1="40.90625"
       y1="113.09375"
       x2="176.31802"
       y2="113.09375"
       gradientUnits="userSpaceOnUse"
       gradientTransform="matrix(0.02572969,0,0,0.03013048,65.463934,40.268338)" /><linearGradient
       inkscape:collect="always"
       xlink:href="#linearGradient8327"
       id="linearGradient8329"
       x1="35.81799"
       y1="68.200992"
       x2="45.307008"
       y2="68.200992"
       gradientUnits="userSpaceOnUse"
       gradientTransform="matrix(0.03013048,0,0,0.03013048,65.128425,40.268338)" /></defs><g
     inkscape:label="Camada 1"
     inkscape:groupmode="layer"
     id="layer1"><g
       id="g12661"
       inkscape:export-filename="logo16x16.png"
       inkscape:export-xdpi="96.000092"
       inkscape:export-ydpi="96.000092"
       transform="matrix(2.0472441,0,0,2.0472441,-73.085337,-43.382597)"><path
         id="path4857"
         style="fill:#800000;stroke-width:0.00878225"
         d="m 68.164044,41.235051 c -0.0079,-1.6e-4 -0.01573,-1.32e-4 -0.02357,6.3e-5 -0.161538,0.004 -0.3208,0.08285 -0.446667,0.232559 -0.149188,0.177448 -0.245473,0.405933 -0.35368,0.839336 -0.06035,0.241731 -0.09057,0.324667 -0.161823,0.444082 -0.122027,0.204512 -0.332884,0.390784 -0.568505,0.502206 -0.0806,0.03811 -0.0925,0.04841 -0.0925,0.08002 0,0.02802 0.01685,0.04792 0.04928,0.05823 0.03014,0.0096 0.04875,0.0054 0.124531,-0.02817 0.235502,-0.104186 0.481015,-0.316056 0.615746,-0.53137 0.09358,-0.149542 0.125791,-0.235168 0.199145,-0.529392 0.07674,-0.307824 0.146047,-0.495056 0.241978,-0.653706 0.142556,-0.235755 0.345404,-0.335551 0.529408,-0.260445 0.23608,0.09636 0.384941,0.35892 0.529346,0.933661 0.02988,0.118914 0.05509,0.219185 0.05602,0.222812 1.5e-4,5.49e-4 -0.0014,-9e-4 -0.0013,-4.67e-4 0.02143,0.09494 0.07063,0.170791 0.07063,0.170791 0.0011,7.51e-4 0.0017,7.7e-4 0.002,5.29e-4 0.02925,0.06203 0.109897,0.184134 0.16735,0.253143 0.142866,0.171601 0.362094,0.335081 0.547641,0.408395 0.05109,0.02019 0.06371,0.02235 0.08766,0.01504 0.0365,-0.01114 0.05345,-0.02988 0.05345,-0.05906 0,-0.03222 -0.01263,-0.04309 -0.09457,-0.08139 -0.192183,-0.08982 -0.384747,-0.24697 -0.508575,-0.415074 -0.04059,-0.05511 -0.09105,-0.139066 -0.09991,-0.164236 l -7.02e-4,0.0077 c -0.0037,-0.002 -0.06295,-0.155972 -0.06427,-0.159363 -0.0029,-0.0076 -0.02952,-0.111143 -0.05906,-0.230145 -0.123717,-0.49847 -0.258195,-0.771824 -0.456196,-0.927308 -0.106646,-0.08375 -0.224945,-0.126057 -0.342843,-0.128456 z m 0.923072,1.437564 7.18e-4,-0.008 c -5.85e-4,1.75e-4 -0.0015,3.07e-4 -0.0018,5.3e-4 -8.92e-4,6.79e-4 -3.26e-4,0.0035 0.0011,0.0074 z" /><path
         style="fill:#800000;fill-opacity:1;stroke:url(#linearGradient8261);stroke-width:0.071418;stroke-linecap:square;stroke-linejoin:round;stroke-dasharray:none;marker-end:url(#TriangleStart);paint-order:markers fill stroke"
         d="m 66.516439,43.675907 h 3.343252"
         id="path7899" /><path
         style="fill:#800000;stroke:url(#linearGradient8329);stroke-width:0.077;stroke-linecap:square;stroke-linejoin:round;stroke-dasharray:none;marker-end:url(#marker7981);paint-order:markers fill stroke"
         d="M 66.350593,43.675907 V 41.096926"
         id="path7947" /><rect
         style="fill:none;fill-opacity:1;stroke:none;stroke-width:0.098;stroke-linecap:square;stroke-linejoin:round;stroke-dasharray:none;stroke-opacity:1;paint-order:markers fill stroke"
         id="rect12400"
         width="4.1356411"
         height="4.1356411"
         x="66.095528"
         y="40.389473" /></g></g></svg>
